<svg xmlns="http://www.w3.org/2000/svg" enable-background="new 0 0 24 24" height="24px" viewBox="0 0 24 24" width="24px" fill="#000000"><g><rect fill="none" height="24" width="24" y="0"/></g><g><g><g><g><path d="M15.85,8.14c0.39,0,0.77,0.03,1.14,0.08C16.31,5.25,13.19,3,9.44,3C5.19,3,1.74,5.88,1.74,9.43 c0,2.05,1.15,3.86,2.94,5.04L3.67,16.5l2.76-1.19c0.59,0.21,1.21,0.38,1.87,0.47c-0.09-0.39-0.14-0.79-0.14-1.21 C8.15,11.03,11.6,8.14,15.85,8.14z M12,5.89c0.53,0,0.96,0.43,0.96,0.96c0,0.53-0.43,0.96-0.96,0.96 c-0.53,0-0.96-0.43-0.96-0.96C11.04,6.32,11.47,5.89,12,5.89z M6.87,7.82c-0.53,0-0.96-0.43-0.96-0.96 c0-0.53,0.43-0.96,0.96-0.96s0.96,0.43,0.96,0.96C7.83,7.39,7.4,7.82,6.87,7.82z"/><path d="M22.26,14.57c0-2.84-2.87-5.14-6.41-5.14c-3.54,0-6.41,2.3-6.41,5.14c0,2.84,2.87,5.14,6.41,5.14 c0.58,0,1.14-0.08,1.67-0.2L20.98,21l-1.2-2.4C21.28,17.66,22.26,16.22,22.26,14.57z M13.92,14.25c-0.53,0-0.96-0.43-0.96-0.96 c0-0.53,0.43-0.96,0.96-0.96c0.53,0,0.96,0.43,0.96,0.96C14.89,13.82,14.45,14.25,13.92,14.25z M17.77,14.25 c-0.53,0-0.96-0.43-0.96-0.96c0-0.53,0.43-0.96,0.96-0.96c0.53,0,0.96,0.43,0.96,0.96C18.73,13.82,18.3,14.25,17.77,14.25z"/></g></g></g></g></svg>